<?xml version="1.0" encoding="utf-8"?>
<!-- Generator: Adobe Illustrator 23.0.3, SVG Export Plug-In . SVG Version: 6.00 Build 0)  -->
<svg version="1.1" id="Layer_1" xmlns="http://www.w3.org/2000/svg" xmlns:xlink="http://www.w3.org/1999/xlink" x="0px" y="0px"
	 viewBox="0 0 330 155" style="enable-background:new 0 0 330 155;" xml:space="preserve">
<style type="text/css">
	.st0{fill:#ffffff;}
	.st00{fill:#cccccc;}
	.st1{font-family:'Montserrat';font-style:Italic;}
	.st2{font-size:15px;}
	.st3{font-size:35px;}
	.st4{fill:#ffb732;}
	.st5{font-family:'Lato';font-weight:900;font-style:Italic;}
	.st6{font-size:34px;}
	.st7{fill:#cccccc;}
	.st8{font-family:'Lato';font-style:Italic;}
	.st9{font-size:14px;}
	.st10{fill:#ACCDFF;}
	.st11{fill:none;stroke:#cccccc;stroke-width:3;stroke-miterlimit:10;}
</style>
<text transform="matrix(1 0 0 1 35.6606 75)" class="st00 st1 st2">THE</text>
<text transform="matrix(1 0 0 1 66.5 88.9346)" class="st0 st1 st3">SERVICE</text>
<text transform="matrix(1 0 0 1 50 121)" class="st4 st5 st6">PROFESSIONAL</text>
<text transform="matrix(1 0 0 1 129.6436 141)" class="st7 st8 st9">Plumbing &amp; Drain Cleaning</text>
<g transform="translate(0)">
	<circle class="st10" cx="302.33" cy="137.36" r="8.11"/>
	<path class="st10" d="M293.68,121.55c-4.34-4.03,13.55,7.34,14.79,10.86s-5.59,5.59-5.59,5.59h-8.48c-0.18-0.61-0.18-1.25,0-1.86
		C295.18,132.76,297.04,124.67,293.68,121.55z"/>
</g>
<line class="st11" x1="13.5" y1="63.5" x2="143.5" y2="11.5"/>
<line class="st11" x1="310.5" y1="78.5" x2="142.5" y2="11.5"/>
</svg>
